<?xml version="1.0" encoding="UTF-8" standalone="no"?>
<svg
   xmlns:dc="http://purl.org/dc/elements/1.1/"
   xmlns:cc="http://creativecommons.org/ns#"
   xmlns:rdf="http://www.w3.org/1999/02/22-rdf-syntax-ns#"
   xmlns:svg="http://www.w3.org/2000/svg"
   xmlns="http://www.w3.org/2000/svg"
   xmlns:sodipodi="http://sodipodi.sourceforge.net/DTD/sodipodi-0.dtd"
   xmlns:inkscape="http://www.inkscape.org/namespaces/inkscape"
   version="1.1"
   id="Layer_1"
   x="0px"
   y="0px"
   viewBox="0 0 1292 1460"
   enable-background="new 0 0 1292 1460"
   xml:space="preserve"
   sodipodi:docname="Hot-Cup-Of-Coffee_gold.svg"
   inkscape:version="0.92.3 (2405546, 2018-03-11)"
   inkscape:export-filename="/home/ademant/src/mt5/mods/farming_awards/textures/farming_awards_coffee_gold.png"
   inkscape:export-xdpi="4.3406506"
   inkscape:export-ydpi="4.3406506"><metadata
   id="metadata1746"><rdf:RDF><cc:Work
       rdf:about=""><dc:format>image/svg+xml</dc:format><dc:type
         rdf:resource="http://purl.org/dc/dcmitype/StillImage" /><dc:title /></cc:Work></rdf:RDF></metadata><defs
   id="defs1744">
	
	
	
	
	
	
	
	
	
	
	
	
	
	
	
	
	
	
	
	
	
	
	
	
	
	
	
	
	
	
	
	
	
	
	
	
	
	
	
	
	
	
	
	
	
	
	
	
	
	
	
	
</defs><sodipodi:namedview
   pagecolor="#ffffff"
   bordercolor="#666666"
   borderopacity="1"
   objecttolerance="10"
   gridtolerance="10"
   guidetolerance="10"
   inkscape:pageopacity="0"
   inkscape:pageshadow="2"
   inkscape:window-width="1366"
   inkscape:window-height="749"
   id="namedview1742"
   showgrid="false"
   inkscape:zoom="0.38972603"
   inkscape:cx="-28.833036"
   inkscape:cy="730"
   inkscape:window-x="0"
   inkscape:window-y="0"
   inkscape:window-maximized="1"
   inkscape:current-layer="Layer_1" />
<path
   style="fill:#fda839;stroke:#ddd9d8;stroke-width:0.2;fill-opacity:1"
   inkscape:connector-curvature="0"
   id="path1635"
   d="m 130.256,526.6295 c 34.85,-10.47 71.31,-14.97 107.63,-15.72 18.9,0.2 38.15,0.63 56.36,6.24 5.24,1.63 10.12,4.24 14.4,7.68 13.38,9.2501 25.53,20.73 33.46,35.09 -0.53,1.26 -0.35,3.36 -2.21,3.33 -15.58,3.08 -30.61,8.26 -45.9,12.44 -3.7,1.26 -7.33,2.8 -11.17,3.63 -7.44,1.55 -14.07,5.64 -21.6,6.89 -0.89,-6.19 -3.71,-11.89 -6.6,-17.36 -4.57,-6.64 -8.9,-13.63 -15.1,-18.9 -8.61,-7.78 -19.56,-12.03 -29.78,-17.17 -6.87,-1.89 -13.81,-3.56 -20.69,-5.43 -15.75,-2.57 -31.94,-4.04 -47.8,-1.42 -3.66,0.32 -7.35,1.8099 -11,0.7 z" /><path
   style="fill:#e59632;stroke:#c6c2c1;stroke-width:0.2;fill-opacity:1"
   inkscape:connector-curvature="0"
   id="path1637"
   d="m 104.346,541.1694 c 19.17,-6.37 39.28,-10.66 59.57,-10.04 27.74,-0.13 56.77,9.81 75.19,31.27 6.12,7.41 11.02,15.99 13.58,25.3 0.76,1.8 -1.33,2.53 -2.62,2.96 -23.78,8.44 -46.95,18.5 -69.7,29.37 -0.89,-5.2599 -1.63,-10.75 -4.51,-15.36 -4.4,-6.99 -10.59,-13.08 -18.21,-16.45 -10.05,-3.93 -21.39,-2.08 -31.05,2.06 -15.44,6.84 -27.63,19.72 -35.33,34.59 -7.91,15.65 -11.38,33.26 -11.32,50.73 0,3.63 0.01,7.31 0.89,10.86 0.45,0.06 1.36,0.16 1.81,0.21 -2.9,3.36 -6.99,5.34 -10.24,8.32 -4.14,3.85 -8.28,7.7 -12.65,11.29 -2.49,-5.31 -4.01,-11 -4.94,-16.78 2.65,-1.04 0.29,-6.12 -0.33,-1.84 -0.17,-1.19 -0.31,-2.38 -0.42,-3.56 0.92,-2.85 1.79,-6.21 0.06,-8.93 -0.25,1.48 -0.45,2.98 -0.6,4.49 -1.02,-8.7 -1.37,-17.54 -0.31,-26.24 0.26,-25.44 2.97,-51.53 13.65,-74.92 3.49,-7.96 8.56,-15.07 13.87,-21.9 7.19,-6.0899 14.62,-12.23 23.61,-15.43 z" /><path
   style="fill:#c6c2c1;stroke:#c6c2c1;stroke-width:0.2"
   inkscape:connector-curvature="0"
   id="path1639"
   d="m 626.996,548.8895 c 9.56,-0.12 19.12,0.23 28.68,-0.03 0.82,4.55 -0.44,9.1 -0.95,13.62 -3.05,27.45 -5.69,54.98 -6.06,82.62 -4.81,0.14 -9.62,0.09 -14.43,0.13 -0.97,-4.84 0.14,-9.77 -0.06,-14.65 0.43,-27.39 -2.09,-54.7801 -7.18,-81.69 z" /><path
   style="fill:#e59632;stroke:#c6c2c1;stroke-width:0.2;fill-opacity:1"
   inkscape:connector-curvature="0"
   id="path1641"
   d="m 451.2659,560.9894 c 37.61,-5.89 75.6201,-8.87 113.61,-11.02 4.87,0.02 9.74,-0.37 14.62,-0.24 9.45,25.35 17.19,51.35 22.48,77.9 0.88,6.07 2.82,11.99 2.98,18.16 -48.15,1.29 -96.25,4.81 -144.04,10.83 -50.04,6.38 -99.81,15.39 -148.53,28.59 -38.54,10.53 -76.58,23.5 -112.36,41.42 -16.17,8.29 -31.93,17.52 -46.28,28.71 -12.85,10.0699 -24.85,21.62 -33.42,35.64 -6.95,11.24 -11.33,24.32 -11.1,37.63 0.02,7.77 1.77,15.44 4.39,22.73 -0.39,-0.21 -1.16,-0.63 -1.54,-0.83 -4.41,-5.94 -7.54,-12.69 -10.92,-19.23 -10.96,-21.42 -18.25,-45.56 -16.01,-69.8199 1.32,-14.15 6.26,-27.87 13.77,-39.9 11.22,-17.42 26.93,-31.54 44.01,-43.05 49.62,-35.06 104.55,-62.44 161.96,-82.2 47.52,-16.43 96.7,-27.8201 146.38,-35.3201 z" /><path
   style="fill:#c6c2c1;stroke:#c6c2c1;stroke-width:0.2"
   inkscape:connector-curvature="0"
   id="path1643"
   d="m 701.946,551.3795 c 13.32,-0.59 26.68,1.29 40.02,1.53 61.2,3.75 122.23,11.14 182.35,23.25 45.42,9.1 90.25,21.27 133.79,37.1 35.7,13 70.1499,30.45 99.6499,54.62 13.9801,11.6 26.8401,24.77 36.7301,40.07 9.4199,14.54 16.09,31.15 17.5299,48.51 -0.2799,6.64 0.5601,13.36 -0.8099,19.92 -3.25,20.1 -10.8301,39.51 -21.8201,56.61 l -0.99,0.28 c 5.5801,-20.05 8.86,-41.01 6.7101,-61.83 -1.8401,-20.82 -9.2001,-41 -20.5,-58.53 -17.5,-26.88 -43.1801,-47.43 -70.79,-63.2 -17.52,-10.21 -36.1,-18.47 -55,-25.76 -47.8199,-18.4 -97.5999,-31.32 -147.89,-40.89 -60.09,-11.55 -121.15,-16.67 -182.03,-21.97 -1.3,23.8199 -1.86,47.67 -3.53,71.47 -0.3,4.66 -0.35,9.34 -0.42,14.01 -16.23,-0.67 -32.47,-1 -48.71,-1.34 4.6,-26.61 13.97,-52.22 26,-76.34 2.97,-5.9701 5.91,-12.01 9.71,-17.51 z" /><path
   style="fill:#a56309;stroke:#736a63;stroke-width:0.2;fill-opacity:1"
   inkscape:connector-curvature="0"
   id="path1645"
   d="m 718.896,561.0895 c 60.88,5.3 121.94,10.42 182.03,21.97 50.29,9.57 100.07,22.49 147.89,40.89 18.9,7.29 37.48,15.55 55,25.76 27.61,15.77 53.29,36.3199 70.79,63.2 11.2999,17.53 18.6599,37.71 20.5,58.53 2.1499,20.82 -1.13,41.78 -6.7101,61.83 -8.9299,15.3 -21.3199,28.38 -34.21,40.43 -1.52,1.18 -2.98,3.62 -5.16,2.35 6.36,-8.5 12.9601,-16.9 18.11,-26.23 8.2201,-17.28 7.66,-38.26 -0.7799,-55.35 -7.3301,-15.47 -19.25,-28.24 -32.3401,-39.02 -28,-22.89 -61.1499,-38.42 -94.72,-51.25 -39.7199,-14.91 -80.8799,-25.71 -122.4299,-34.14 -66.52,-13.31 -134.18,-20.45 -201.92,-23.49 0.07,-4.67 0.12,-9.35 0.42,-14.01 1.6699,-23.8 2.2299,-47.6501 3.53,-71.47 z" /><path
   style="fill:#e4e8e9;stroke:#e4e8e9;stroke-width:0.2"
   inkscape:connector-curvature="0"
   id="path1647"
   d="m 1254.6161,755.1594 c -3.75,-20.38 -12.9902,-39.44 -25.3301,-55.97 -21.9302,-29.92 -52.4199,-52.09 -83.73,-71.29 -0.06,-1.7 -1.8003,-2.17 -3.02,-2.77 l 0.1699,1.91 c -1.71,-1.47 -3.48,-2.85 -5.49,-3.85 -4.3201,-2.17 -8.3101,-5.03 -12.95,-6.5 0.4299,-0.13 0.8699,-0.26 1.3398,-0.38 -4.1299,-0.92 -7.5801,-3.45 -11.3599,-5.17 -17.3601,-8.72 -35.29,-16.19 -53.3601,-23.27 -20.6499,-7.57 -41.3898,-14.98 -62.5998,-20.79 -2.8801,-1.39 -6.01,-2.2 -9.2202,-2.04 0.9702,-0.27 1.9502,-0.54 2.9502,-0.8 -2.79,-0.26 -5.5901,-0.56 -8.27,-1.32 -18.29,-5.15 -36.8101,-9.41 -55.3701,-13.39 -9.6099,-1.91 -19.24,-3.74 -28.7998,-5.86 -18.8801,-2.93 -37.6501,-6.76 -56.6702,-8.81 -6.1799,-1.44 -12.52,-1.64 -18.8201,-1.62 -3.8699,-1.58 -8.0498,-2.05 -12.0999,-2.9 -8.04,-0.17 -16.02,-1.22 -24.05,-1.52 -6.3201,-1.06 -12.73,-1.65 -19.1401,-1.71 l -0.6899,-0.36 c -4.46,0.03 -8.8999,-0.39 -13.2998,-1.07 -0.8201,0 -2.46,0 -3.28,0.01 -1.0801,-0.03 -2.1501,-0.07 -3.2,-0.1 -4.25,-0.58 -8.5303,-0.75 -12.8,-0.91 -4.9602,-0.09 -9.9402,-0.17 -14.8301,-1.07 l -0.97,-0.02 c -0.3999,-0.02 -1.2,-0.08 -1.5901,-0.1 -0.6099,-1.65 0.9099,-2.86 1.98,-3.82 0.1201,-0.42 0.3701,-1.27 0.49,-1.6899 10.53,-18.3701 20.9302,-37.1001 26.8501,-57.5401 6.54,-21.51 6.46,-44.77 0.75,-66.46 -4.22,-16.33 -11.24,-31.8 -19.55,-46.4301 -1.03,-1.76 -1.8799,-3.61 -2.6399,-5.48 -0.1101,0.4299 -0.2002,0.87 -0.29,1.3201 -0.49,-2.6901 -2.1201,-4.8901 -3.5801,-7.1201 -7.9099,-12.59 -16.3899,-24.85 -25.76,-36.3999 -0.4299,-0.27 -1.29,-0.8201 -1.72,-1.1001 0,-0.26 0.01,-0.7899 0.01,-1.0599 -0.3699,-0.52 -0.73,-1.04 -1.0801,-1.5599 -3.1199,-3.4801 -6.0898,-7.0901 -8.8999,-10.8201 -0.96,-1.0901 -1.8301,-2.25 -2.6199,-3.46 -3.8401,-3.79 -7.3301,-7.9 -10.6702,-12.1201 -13.5601,-15.46 -27.9099,-30.22 -42.26,-44.96 -1.8,-1.8699 -3.5601,-3.78 -5.47,-5.53 -1.26,-0.96 -2.5801,-1.8398 -3.8801,-2.73 1.9502,2.6801 3.7002,5.5 5.25,8.4301 0.75,0.89 1.53,1.7799 2.25,2.7 0,1e-4 0,1e-4 0,1e-4 15.9702,23.97 26.9102,50.98 34.0801,78.7999 0.98,4.0399 1.21,8.27 2.8,12.16 -0.21,-2.3401 -0.53,-4.65 -0.9399,-6.96 1.05,2.8999 1.5701,5.9099 1.1299,8.99 7.6201,40.1299 7.2102,81.3499 4.05,121.9199 -0.05,8.02 -1.8799,15.89 -2.1099,23.9 -2.0701,18.61 -4.1501,37.23 -6.73,55.79 -7.55,0.09 -15.1301,-0.46 -22.6301,0.55 -5.4399,0.26 -10.8899,0.1 -16.3201,0.28 -13.28,-48.8401 -37.0801,-93.9701 -51.8301,-142.3301 -6.8398,-22.8199 -11.4897,-46.3999 -12.96,-70.1899 -1.9099,-31.73 0.9402,-63.62 7.4001,-94.71 3.3799,-18.22 8.8298,-35.96 13.5999,-53.8401 2.3801,-5.71 3.8701,-11.73 5.8801,-17.5699 12.8699,-37.24 28.02,-73.66 45.02,-109.2001 1.8201,-4.25 4.5901,-8.1599 5.3799,-12.8099 -1.9399,1.49 -3.77,3.11 -5.4099,4.91 -17.3601,19.01 -34.8501,37.9199 -51.02,57.96 -4.6599,4.48 -7.76,10.21 -12.05,15 -5.53,7.4399 -11.4099,14.62 -16.45,22.41 -8.77,11.8099 -16.6799,24.26 -24.04,36.99 -19.2701,32.48 -34.4099,68.1 -39.1599,105.8099 -4.71,35.3301 1.1599,71.3901 13.1899,104.74 4.8699,12.8801 9.78,25.75 15.8101,38.1501 4.8899,9.8899 9.04,20.1499 14.3201,29.8499 4.1899,8.46 8.4099,16.9 12.3398,25.48 6.5601,11.4901 11.3501,23.86 17.54,35.54 3.52,7.87 7.1899,15.68 10.5601,23.63 0.1099,0.69 1.1599,1.98 -0.04,2.34 -4.8,1.32 -9.8701,1.04 -14.79,1.61 -69.0699,5.94 -137.76,16.96 -205.0301,33.79 -1.6199,0.34 -3.24,0.64 -4.8599,0.97 -0.6602,-0.56 -1.3,-1.13 -1.9202,-1.7 -0.5298,1.26 -0.3499,3.36 -2.21,3.33 -15.5801,3.08 -30.6099,8.26 -45.8999,12.44 -3.7002,1.26 -7.3301,2.8 -11.1699,3.63 -7.4402,1.55 -14.0701,5.64 -21.6001,6.89 -0.8901,-6.19 -3.71,-11.89 -6.6001,-17.36 -4.5698,-6.64 -8.8999,-13.63 -15.0999,-18.9 -8.6101,-7.78 -19.5601,-12.03 -29.78,-17.17 -6.8701,-1.89 -13.8101,-3.5599 -20.6899,-5.4299 -15.75,-2.57 -31.9402,-4.04 -47.8,-1.42 -3.6599,0.32 -7.3501,1.81 -11,0.7 -3.49,0.54 -6.76,1.91 -10.04,3.16 -8.54,2.9999 -16.9001,6.6299 -24.6399,11.34 -6.25,3.67 -11.02,9.41 -14.8401,15.47 7.1899,-6.09 14.6199,-12.23 23.6101,-15.43 19.1699,-6.37 39.2798,-10.66 59.5698,-10.04 27.74,-0.13 56.77,9.81 75.1899,31.27 6.1201,7.41 11.02,15.99 13.5801,25.3 0.76,1.8 -1.3301,2.53 -2.6201,2.96 -23.7798,8.44 -46.95,18.5 -69.7,29.37 -6.3398,3.77 -13.1399,6.6801 -19.5198,10.36 -10.5901,5.43 -20.5801,11.91 -30.79,17.99 -0.2603,-2.37 -0.53,-4.73 -0.6802,-7.1 -0.26,2.65 -0.02,5.4 -0.7,8 -5.01,4.01 -10.6101,7.26 -15.7,11.2 -10.6299,8.07 -21.25,16.37 -30.3301,26.19 -2.8999,3.36 -6.99,5.34 -10.24,8.32 1.3601,2.32 -1.51,3.73 -2.6599,5.38 -14.0901,16.82 -25.01,36.68 -29.4502,58.3 -1.2397,5.13 -1.1299,10.44 -2.21,15.6 -0.6799,-1.9 -1.2598,-3.83 -1.7998,-5.75 -0.6201,3.08 -0.73,6.22 0.3499,9.22 0.1902,-0.28 0.5901,-0.85 0.79,-1.14 2.3201,22.06 9.0701,43.61 19.28,63.28 9.6899,17.85 21.97,34.27 36.21,48.75 21.72,21.93 47.1899,39.87 74.0601,54.91 57.5698,31.75 121.05,51.04 185.01,65.04 65.78,14.12 132.8499,21.37 199.95,25.25 4.01,0.36 8.02,0.7899 12.0601,0.7799 9.6599,-0.12 19.26,1.3301 28.9199,1 6.7,-0.25 13.3901,0.14 20.0701,0.55 17.6299,0.07 35.27,0.29 52.8999,-0.09 10.01,-0.9 20.05,-0.1801 30.0801,-0.5801 6.3298,-0.1499 12.6399,-1.08 18.99,-0.89 7.3501,0.2301 14.6499,-0.99 22,-0.98 6.6899,0.1 13.3,-1.23 19.99,-1.0699 44.1301,-3.1 88.26,-7.12 131.9299,-14.33 45.7002,-7.15 91.05,-17.14 135.01,-31.64 7.29,-2.06 13.9802,-5.68 21.1799,-7.98 9.98,-3.96 20.04,-7.73 29.8501,-12.08 8.5,-4.25 17.3799,-7.71 25.6299,-12.45 6.77,-3.95 14.04,-6.97 20.6101,-11.28 24.27,-14.2 46.8499,-31.34 66.79,-51.19 28.27,-28.31 50.0598,-63.07 63.1101,-100.9 1.1699,-3.3 1.77,-6.81 3.5798,-9.85 0.3401,2.41 0.6301,4.84 0.8601,7.28 l 0.03,-0.19 c -0.09,-4.82 0.1001,-9.63 0.6401,-14.41 0.1303,-6.1497 -0.6795,-12.2998 -1.5494,-18.3698 z M 721.727,525.3326 c -2.3521,-0.0106 -4.6411,-0.3082 -6.3911,-2.1332 1.75,1.825 4.0393,2.1227 6.3911,2.1332 z m 489.4789,251.0469 c -3.25,20.1 -10.8301,39.51 -21.8201,56.61 l -0.99,0.28 c -8.9299,15.3 -21.3198,28.38 -34.21,40.43 -1.52,1.18 -2.98,3.62 -5.1602,2.35 -0.1899,0.5 -0.5598,1.51 -0.75,2.02 l -0.6797,0.04 c -0.3403,1.78 -2.2402,2.51 -3.3301,3.77 -12.2603,12.57 -26.2202,24.26 -42.8101,30.52 -7.76,3.96 -14.8999,9.08 -22.6099,13.17 -37.3101,20.51 -78.02,33.96 -119.0502,44.79 -67.71,17.29 -137.1699,27.03 -206.7998,32.12 -26.6401,2.04 -53.3501,2.64 -80.05,3.1 -56.3201,1.14 -112.71,0.3 -168.93,-3.47 -57.46,-3.95 -114.8501,-10.74 -171.1301,-23.22 -33.6799,-7.56 -67.0598,-17.06 -98.8699,-30.57 -15.7202,-6.71 -30.9102,-14.61 -45.73,-23.11 -0.8301,-0.45 -1.5701,-1 -2.21,-1.66 -1.0801,-0.32 -2.1001,-0.77 -3.0601,-1.33 -22.8,-13.97 -43.9199,-31.4 -59.3501,-53.42 -3.8501,-5.51 -7.78,-11.09 -10.05,-17.46 -0.3899,-0.21 -1.1599,-0.63 -1.5398,-0.83 -4.4102,-5.94 -7.54,-12.69 -10.9202,-19.23 -10.96,-21.42 -18.25,-45.56 -16.01,-69.8199 1.3201,-14.15 6.26,-27.87 13.77,-39.9 11.22,-17.42 26.9302,-31.54 44.01,-43.05 49.6199,-35.06 104.55,-62.44 161.9599,-82.2 47.52,-16.43 96.7,-27.82 146.3801,-35.32 37.6099,-5.89 75.6199,-8.87 113.6099,-11.02 4.8701,0.02 9.74,-0.37 14.6201,-0.24 9.45,25.35 17.1899,51.35 22.48,77.9 0.8799,6.07 2.8198,11.99 2.98,18.16 l 0.4099,-0.01 c 1.1101,7.53 2.23,15.07 3.04,22.65 2.8601,24.84 3.6399,49.9 2.79,74.88 -0.27,4.15 -0.1599,8.32 -0.54,12.46 l -0.0701,-0.31 c -0.2,10.79 -2.0999,21.54 -2.22,32.3 3.1702,-11.78 6.3701,-23.56 9.2102,-35.43 0.71,-3.13 1.4299,-6.25 2.1099,-9.37 l 0.1401,-0.01 c 5.3899,-25.07 9.8999,-50.37 12.3198,-75.92 l 0.6499,0.2 -0.7798,-0.27 c 0.9199,-7.21 1.26,-14.48 1.6499,-21.73 h 0.5701 c -0.97,-4.84 0.1399,-9.77 -0.0601,-14.65 0.4299,-27.39 -2.0901,-54.78 -7.1799,-81.69 9.5601,-0.12 19.1199,0.23 28.6799,-0.03 0.8201,4.55 -0.4399,9.1 -0.95,13.62 -3.05,27.45 -5.6899,54.98 -6.0601,82.62 0.0601,7.52 0.2,15.04 0.3799,22.56 0.9902,24.4301 4.4702,48.83 11.3501,72.32 l 0.0801,-0.51 c 1.0698,4.08 2.5,8.06 3.8799,12.05 1.9102,5.07 3.9502,10.1 6.1401,15.07 -0.77,-4.8701 -1.99,-9.65 -2.6699,-14.53 h -0.1001 c -0.53,-3.54 -1.1899,-7.04 -1.6802,-10.57 -3.6799,-24.49 -4.98,-49.41 -2.71,-74.09 0.5701,-7.44 1.6702,-14.82 2.9001,-22.17 4.5999,-26.61 13.97,-52.22 26,-76.34 2.97,-5.97 5.9099,-12.01 9.71,-17.51 13.3201,-0.59 26.6799,1.29 40.02,1.53 61.2,3.75 122.23,11.14 182.3499,23.25 45.4202,9.1 90.25,21.27 133.79,37.1 35.7002,13 70.1499,30.45 99.6499,54.62 13.9802,11.6 26.8403,24.77 36.7302,40.07 9.4199,14.54 16.0901,31.15 17.53,48.51 -0.2793,6.6398 0.5607,13.3599 -0.8094,19.9199 z" /><path
   style="fill:#a56309;stroke:#a39e9a;stroke-width:0.2;fill-opacity:1"
   inkscape:connector-curvature="0"
   id="path1649"
   d="m 126.596,590.2794 c 9.66,-4.14 21,-5.99 31.05,-2.06 -15.81,13.08 -26.44,32.58 -28.27,53.06 -0.26,2.65 -0.02,5.4 -0.7,8 -5.01,4.01 -10.61,7.26 -15.7,11.2 -10.63,8.07 -21.25,16.37 -30.33,26.19 -0.45,-0.05 -1.36,-0.15 -1.81,-0.21 -0.88,-3.55 -0.89,-7.23 -0.89,-10.86 -0.06,-17.47 3.41,-35.08 11.32,-50.73 7.7,-14.8699 19.89,-27.75 35.33,-34.59 z" /><path
   style="fill:#282721;stroke:#282721;stroke-width:0.2"
   inkscape:connector-curvature="0"
   id="path1651"
   d="m 634.236,645.2294 c 4.81,-0.04 9.62,0.01 14.43,-0.13 0.06,7.52 0.2,15.04 0.38,22.56 -5.4,0.07 -10.99,1.13 -16.25,-0.43 l -0.78,-0.27 c 0.92,-7.21 1.26,-14.48 1.65,-21.73 h 0.57 m -0.47,15.3 c 1.17,2.27 3.73,3.28 5.91,4.35 2.68,0.05 5.6,-0.26 7.96,-1.64 1.36,-2.54 0.44,-5.7 0.17,-8.43 -2.98,-0.35 -6.02,-0.87 -8.98,-0.2 -2.71,0.61 -5.84,2.7101 -5.06,5.92 z" /><path
   style="fill:#292621;stroke:#292621;stroke-width:0.2"
   inkscape:connector-curvature="0"
   id="path1653"
   d="m 460.916,656.6194 c 47.79,-6.02 95.89,-9.54 144.04,-10.83 l 0.41,-0.01 c 1.11,7.53 2.23,15.07 3.04,22.65 -10.5099,0.62 -21.05,0.36 -31.54,1.25 -18.89,0.25 -37.69,2.27 -56.53,3.4 -7.57,0.72 -15.1501,1.34 -22.7201,2.17 -1.69,-2.07 -4.42,-0.35 -6.57,-0.32 -15.81,1.79 -31.71,2.89 -47.46,5.27 -12.02,1.43 -23.97,3.41 -35.96,5.03 -12.34,2.42 -24.83,3.97 -37.07,6.88 -11.35,1.72 -22.36,5.02 -33.6,7.27 -8.87,1.8 -17.37,4.95 -26.19,6.92 -7.8,2.04 -15.52,4.38 -23.17,6.91 -7.71,2.43 -13.81,7.96 -19.98,12.94 -1.18,-0.01 -2.39,-0.03 -3.49,0.48 -28.22,11.46 -55.66,25.48 -79.76,44.25 -13.5,10.47 -25.47,23.01 -34.7,37.42 -4.82,7.51 -8.16,15.88 -10.42,24.49 1.27,0.55 2.56,1.11 3.87,1.61 -6.39,-1.17 -13.21,0.91 -17.65,5.68 -1.88,1.94 -1.87,5.87 0.76,7.19 3.29,1.77 7.23,1.44 10.85,1.3 0.96,7.02 1.26,14.24 3.85,20.92 1.36,3.41 2.52,6.91 4.03,10.27 7.56,13.43 17.95,25.16 30.05,34.69 3.34,3.48 7.96,5.39 11.07,9.1 -1.08,-0.32 -2.1,-0.77 -3.06,-1.33 -22.8,-13.97 -43.92,-31.4 -59.35,-53.42 -3.85,-5.51 -7.78,-11.09 -10.05,-17.46 -2.62,-7.29 -4.37,-14.96 -4.39,-22.73 -0.23,-13.31 4.15,-26.39 11.1,-37.63 8.57,-14.02 20.57,-25.57 33.42,-35.64 14.35,-11.19 30.11,-20.42 46.28,-28.71 35.78,-17.92 73.82,-30.89 112.36,-41.42 48.7201,-13.1999 98.49,-22.2099 148.5301,-28.59 z" /><path
   style="fill:#292621;stroke:#292621;stroke-width:0.2"
   inkscape:connector-curvature="0"
   id="path1655"
   d="m 666.236,645.2294 c 16.24,0.34 32.48,0.67 48.71,1.34 67.74,3.04 135.4,10.18 201.92,23.49 41.55,8.43 82.71,19.23 122.4299,34.14 33.5701,12.83 66.72,28.36 94.72,51.25 13.0901,10.78 25.01,23.55 32.3401,39.02 8.4399,17.09 9,38.07 0.7799,55.35 -5.1499,9.33 -11.75,17.73 -18.11,26.23 -0.1899,0.5 -0.5599,1.51 -0.75,2.02 l -0.6799,0.04 c -0.3401,1.78 -2.24,2.51 -3.3301,3.77 -12.26,12.57 -26.22,24.26 -42.8099,30.52 3.53,-3.65 7.83,-6.39 11.78,-9.55 20.35,-15.99 37.8899,-37 45.0399,-62.28 3.75,-11.65 3.5701,-24.61 -1.36,-35.9 -5.45,-12.89 -15.09,-23.51 -25.73,-32.38 -14.8101,-13.01 -32.28,-22.5 -49.91,-31.08 -11.73,-5.64 -23.71,-10.77 -35.95,-15.21 -2.05,-0.78 -4.28,-1.92 -6.4,-0.68 -6.53,-4.65 -14.55,-5.9 -21.8599,-8.81 0.19,0.52 0.55,1.56 0.73,2.08 -2.8,-1.5 -5.13,-3.88 -8.27,-4.67 -8.15,-2.32 -16.25,-4.81 -24.47,-6.8 0.56,-0.76 1.12,-1.53 1.69,-2.3 -1.49,-2.54 -3.46,-4.96 -6.47,-5.65 -7.55,-2.58 -15.76,-3.05 -23.61,-1.84 -2.4,0.32 -4.72,0.98 -6.97,1.8 -1.15,-0.77 -2.37,-1.45 -3.72,-1.68 -11.24,-2.47 -22.56,-4.54 -33.8,-6.98 -1.24,-0.37 -2.46,-0.79 -3.65,-1.19 -0.23,-4.05 -3.63,-6.68 -7.51,-6.84 -4.28,-0.78 -7.51,2.42 -10.94,4.32 -19.32,-3.25 -38.73,-5.97 -58.18,-8.29 -6.12,-0.73 -12.22,-2.17 -18.41,-1.6 1.27,-2.01 1.93,-4.93 -0.21,-6.63 -3.4301,-2.73 -8.48,-2.18 -12.27,-0.53 -2.14,0.87 -1.81,3.6 -2.37,5.45 -5.15,-1.0699 -10.43,-1.0699 -15.64,-1.63 -29.97,-2.61 -60.01,-4.21 -90.07,-5.05 0.14,-2.74 0.37,-5.93 -1.96,-7.87 -5.47,-3.95 -13.28,-4.31 -19.21,-1.16 -3.24,1.78 -4.66,5.75 -3.36,9.21 -1.66,-0.53 -3.38,-0.89 -5.06,-1.2599 0.5699,-7.44 1.67,-14.82 2.9,-22.1701 z" /><path
   style="fill:#15130b;stroke:#15130b;stroke-width:0.2"
   inkscape:connector-curvature="0"
   id="path1657"
   d="m 633.766,660.5294 c -0.78,-3.21 2.35,-5.31 5.06,-5.92 2.96,-0.67 6,-0.15 8.98,0.2 0.27,2.73 1.19,5.89 -0.17,8.43 -2.36,1.38 -5.28,1.69 -7.96,1.64 -2.18,-1.07 -4.74,-2.08 -5.91,-4.35 z" /><path
   style="fill:#533d20;stroke:#533d20;stroke-width:0.2"
   inkscape:connector-curvature="0"
   id="path1659"
   d="m 671.756,659.4495 c 5.93,-3.15 13.74,-2.79 19.21,1.16 2.33,1.94 2.1,5.13 1.96,7.87 -6.42,6.18 -18.36,7.11 -24.53,0.18 -1.3001,-3.46 0.12,-7.4301 3.36,-9.21 z" /><path
   style="fill:#020100;stroke:#020100;stroke-width:0.2"
   inkscape:connector-curvature="0"
   id="path1661"
   d="m 632.146,667.0294 0.65,0.2 c 5.26,1.56 10.85,0.5 16.25,0.43 0.99,24.4301 4.47,48.83 11.35,72.32 -0.05,0.38 -0.17,1.16 -0.22,1.55 -13.45,0.46 -26.92,0.3701 -40.35,1.42 5.39,-25.0699 9.9,-50.3699 12.32,-75.92 z" /><path
   style="fill:#020100;stroke:#020100;stroke-width:0.2"
   inkscape:connector-curvature="0"
   id="path1663"
   d="m 663.336,667.3995 c 1.68,0.37 3.4,0.73 5.06,1.2599 6.17,6.9301 18.11,6 24.53,-0.18 30.06,0.84 60.1,2.44 90.07,5.05 5.21,0.5601 10.49,0.5601 15.64,1.63 3.44,4.96 10.09,3.96 14.85,1.71 6.19,-0.57 12.29,0.87 18.41,1.6 19.45,2.32 38.86,5.04 58.18,8.29 1.95,2.23 3.78,5.09 6.92,5.68 5.25,1.41 9.88,-2.83 15.18,-1.97 11.24,2.44 22.56,4.51 33.8,6.98 1.35,0.23 2.57,0.91 3.72,1.68 -2.19,1.11 -4.92,1.97 -6.02,4.38 -0.25,1.45 -0.2,3.27 1.13,4.24 2.76,2.28 6.22,3.59 9.76,4.07 7.36,1.58 15.05,1.2 22.35,-0.54 2.99,-0.71 5.91,-1.97 8.14,-4.16 8.22,1.99 16.32,4.48 24.47,6.8 3.14,0.79 5.47,3.17 8.27,4.67 13.8,8.4 26.3799,18.81 37.4799,30.55 6.4501,7.3 12.3401,15.45 15.29,24.83 1.53,5.23 1.97,11.84 -2.26,15.97 -4.38,4.72 -11.39,4.69 -17.34,4.99 -21.2001,-0.05 -42.0099,-4.75 -62.6899,-8.95 -45.66,-10.51 -91.13,-22.06 -137.32,-30.09 -27.81,-5.05 -55.85,-8.75 -84.01,-11.17 -33.56,-2.6299 -67.25,-3.3199 -100.9,-3.23 -3.68,-24.4899 -4.98,-49.4099 -2.71,-74.0899 m 184.84,15.48 c -2.99,0.43 -6.37,2.99 -4.86,6.35 2.71,4.28 8.68,4.16 12.95,2.65 3.17,-0.81 3.74,-5.38 1.87,-7.59 -2.9,-1.89 -6.66,-2.3801 -9.96,-1.41 z" /><path
   style="fill:#020100;stroke:#020100;stroke-width:0.2"
   inkscape:connector-curvature="0"
   id="path1665"
   d="m 576.866,669.6794 c 10.49,-0.89 21.03,-0.63 31.54,-1.25 2.86,24.84 3.64,49.9 2.79,74.88 -46.69,2.22 -93.45,9.03 -140.22,4.58 -11.88,-1.17 -24.55,-2.65 -34.47,-9.87 -4.79,-3.37 -7.1,-9.73 -5.36,-15.36 2.68,-8.61 9.21,-15.25 15.64,-21.2599 14.43,-12.7401 32.31,-21.25 50.83,-26.15 7.57,-0.83 15.1501,-1.45 22.7201,-2.17 18.8399,-1.13 37.6399,-3.1501 56.5299,-3.4001 z" /><path
   style="fill:#523d22;stroke:#523d22;stroke-width:0.2"
   inkscape:connector-curvature="0"
   id="path1667"
   d="m 801.006,669.7095 c 3.79,-1.65 8.84,-2.2 12.27,0.53 2.14,1.7 1.48,4.62 0.21,6.63 -4.76,2.25 -11.41,3.25 -14.85,-1.71 0.56,-1.8501 0.23,-4.58 2.37,-5.45 z" /><path
   style="fill:#3e3b34;stroke:#3e3b34;stroke-width:0.2"
   inkscape:connector-curvature="0"
   id="path1669"
   d="m 491.0459,674.9294 c 2.15,-0.03 4.88,-1.75 6.57,0.32 -18.52,4.9 -36.4,13.41 -50.83,26.15 -6.43,6.0099 -12.96,12.65 -15.64,21.2599 -1.74,5.63 0.57,11.9901 5.36,15.36 9.92,7.22 22.59,8.7 34.47,9.87 46.77,4.45 93.53,-2.36 140.22,-4.58 -0.27,4.15 -0.16,8.32 -0.54,12.46 l -0.0699,-0.31 c -0.14,-0.6 -0.4,-1.79 -0.54,-2.39 -18.43,0.11 -36.79,2.17 -55.13,3.79 -44.35,4.51 -88.27,12.38 -132.01,20.79 -27.53,4.8799 -55.07,10.12 -83.01,12.0099 -17.91,1.17 -36.01,1.4 -53.79,-1.34 -10.18,-1.57 -20.45,-4.79 -28.59,-11.3 -2.44,-2.05 -4.67,-4.46 -5.86,-7.47 1.1,-0.49 3.03,-0.11 3.39,-1.63 0.98,-3.19 2.68,-6 4.72,-8.61 2.35,-5.76 -1.69,-11.01 -5.18,-15.19 -1.69,-0.64 -3.35,-1.29 -5.04,-1.9 1.28,-0.02 2.57,-0.03 3.86,-0.03 3.67,-6.19 8.49,-11.67 14.21,-16.04 6.17,-4.98 12.27,-10.51 19.98,-12.94 7.65,-2.53 15.37,-4.87 23.17,-6.91 8.82,-1.97 17.32,-5.12 26.19,-6.92 11.24,-2.25 22.25,-5.55 33.6,-7.27 12.24,-2.91 24.73,-4.46 37.07,-6.88 11.99,-1.62 23.94,-3.6 35.96,-5.03 15.7499,-2.3797 31.6499,-3.4798 47.4599,-5.2698 m -115.76,40.9601 c -1.52,1.92 -1.72,4.47 -2.3,6.77 1.62,1.64 3.07,3.51 5,4.83 3.28,0.58 6.64,0.34 9.96,0.26 1.17,-1.21 2.35,-2.41 3.56,-3.58 1.4,-0.36 2.78,-0.79 4.06,-1.49 -0.66,-2.65 -1.58,-5.33 -3.56,-7.28 -2.62,-3.27 -7.29,-1.82 -10.91,-1.9 -1.47,1.84 -3.92,1.45 -5.81,2.39 m -58.1,14.8399 c -3.55,1.08 -5.68,4.53 -6.86,7.84 3.46,0.58 3.93,5.46 7.58,5.14 3.33,0.18 6.7,0.38 10.03,-0.03 1.18,-0.88 1.74,-2.31 2.54,-3.48 1.01,-0.55 2.04,-1.08 3.06,-1.6 -1.11,-7.0199 -10.17,-11.98 -16.35,-7.87 m -49.8599,30.2701 c -3.04,0.24 -6.42,1.03 -8.02,3.91 -0.53,2.13 0.47,4.97 2.73,5.63 3.54,1.45 7.83,1.36 11.08,-0.76 1.34,-1.3 3.02,-3.2 1.94,-5.17 -1.4301,-2.7001 -4.8501,-3.73 -7.73,-3.61 z" /><path
   style="fill:#a9a8a6;stroke:#a9a8a6;stroke-width:0.2"
   inkscape:connector-curvature="0"
   id="path1671"
   d="m 54.126,675.1694 c 1.73,2.72 0.86,6.08 -0.06,8.93 -0.19,-1.49 -0.37,-2.97 -0.54,-4.44 0.15,-1.5099 0.35,-3.0099 0.6,-4.49 z" /><path
   style="fill:#16130c;stroke:#16130c;stroke-width:0.2"
   inkscape:connector-curvature="0"
   id="path1673"
   d="m 848.176,682.8795 c 3.3,-0.97 7.06,-0.48 9.96,1.41 1.87,2.21 1.3,6.78 -1.87,7.59 -4.27,1.51 -10.24,1.63 -12.95,-2.65 -1.51,-3.3601 1.87,-5.9201 4.86,-6.35 z" /><path
   style="fill:#17130a;stroke:#17130a;stroke-width:0.2"
   inkscape:connector-curvature="0"
   id="path1675"
   d="m 890.076,686.7595 c 3.43,-1.9 6.66,-5.1 10.94,-4.32 3.88,0.16 7.28,2.79 7.51,6.84 1.19,0.4 2.41,0.82 3.65,1.19 -5.3,-0.86 -9.93,3.38 -15.18,1.97 -3.14,-0.5901 -4.97,-3.4501 -6.92,-5.68 z" /><path
   style="fill:#a4a3a1;stroke:#a4a3a1;stroke-width:0.2"
   inkscape:connector-curvature="0"
   id="path1677"
   d="m 54.486,687.6594 c 0.62,-4.28 2.98,0.8 0.33,1.84 -0.09,-0.46 -0.25,-1.38 -0.33,-1.84 z" /><path
   style="fill:#4f412e;stroke:#4f412e;stroke-width:0.2"
   inkscape:connector-curvature="0"
   id="path1679"
   d="m 956.666,697.3295 c 7.85,-1.21 16.06,-0.74 23.61,1.84 3.0099,0.69 4.98,3.11 6.47,5.65 -0.57,0.77 -1.13,1.54 -1.69,2.3 -2.23,2.19 -5.15,3.45 -8.14,4.16 -7.3,1.7401 -14.99,2.1201 -22.35,0.54 3.98,-0.67 8.02,-0.53 12.04,-0.48 0.07,-0.6201 0.21,-1.85 0.28,-2.47 3.92,1.27 8.45,2.3 12.16,-0.18 2.78,-1.06 3.62,-5.47 0.97,-7.13 -3.11,-2.47 -7.31,-1.95 -10.94,-1.33 -0.14,-0.59 -0.41,-1.78 -0.54,-2.37 -3.97,0.08 -7.9401,-0.04 -11.87,-0.53 z" /><path
   style="fill:#543d1e;stroke:#543d1e;stroke-width:0.2"
   inkscape:connector-curvature="0"
   id="path1681"
   d="m 949.696,699.1295 c 2.25,-0.82 4.57,-1.48 6.97,-1.8 3.93,0.49 7.9,0.61 11.87,0.53 0.13,0.59 0.4,1.78 0.54,2.37 -1.46,1.24 -3.31,2.39 -3.83,4.36 0.34,1.48 1.03,2.86 1.64,4.28 -0.07,0.62 -0.21,1.85 -0.28,2.47 -4.02,-0.05 -8.06,-0.19 -12.04,0.48 -3.54,-0.48 -7,-1.79 -9.76,-4.07 -1.33,-0.97 -1.38,-2.79 -1.13,-4.24 1.1,-2.4101 3.83,-3.2701 6.02,-4.38 z" /><path
   style="fill:#191206;stroke:#191206;stroke-width:0.2"
   inkscape:connector-curvature="0"
   id="path1683"
   d="m 969.076,700.2294 c 3.63,-0.62 7.83,-1.14 10.94,1.33 2.65,1.66 1.81,6.07 -0.97,7.13 -3.71,2.48 -8.24,1.45 -12.16,0.18 -0.61,-1.42 -1.3,-2.8 -1.64,-4.28 0.52,-1.97 2.37,-3.12 3.83,-4.36 z" /><path
   style="fill:#543d1d;stroke:#543d1d;stroke-width:0.2"
   inkscape:connector-curvature="0"
   id="path1685"
   d="m 375.2859,715.8895 c 1.89,-0.94 4.34,-0.55 5.81,-2.39 3.62,0.08 8.29,-1.37 10.91,1.9 1.98,1.95 2.9,4.6299 3.56,7.28 -1.28,0.7 -2.66,1.13 -4.06,1.49 -1.21,1.17 -2.39,2.37 -3.56,3.58 -3.32,0.08 -6.68,0.32 -9.96,-0.26 -1.93,-1.32 -3.38,-3.19 -5,-4.83 0.58,-2.3001 0.78,-4.8501 2.3,-6.77 z" /><path
   style="fill:#3e3b34;stroke:#3e3b34;stroke-width:0.2"
   inkscape:connector-curvature="0"
   id="path1687"
   d="m 1017.066,716.5095 c 7.3099,2.91 15.3299,4.16 21.8599,8.81 8.24,4.44 15.23,10.83 22,17.22 11.03,10.94 19.6901,25.94 18.34,41.97 -0.04,7.31 -3.26,13.94 -5.48,20.74 8.7001,1.83 17.1801,5.58 23.59,11.86 2.76,2.76 4.54,6.61 4.5701,10.54 -0.28,4.28 -3.52,7.48 -6.55,10.17 5.39,1.73 11.27,2.79 15.5601,6.81 3.1,2.26 6.12,5.92 5.03,10.02 -1.3401,4.75 -6.4301,6.8199 -10.6901,8.22 -10.34,2.46 -21.4299,0.79 -30.96,-3.77 -3.48,-1.61 -6.2001,-4.54 -8.09,-7.82 -1.4401,-2.42 -0.17,-5.1899 0.33,-7.68 -9.52,-0.71 -19.04,-2.87 -27.5701,-7.23 -4.4199,-2.69 -9.09,-5.56 -11.7699,-10.15 -2.2301,-3.45 -2.64,-8.14 -0.4601,-11.71 1.73,-3.41 5.27,-5.2 8.25,-7.33 -42.1599,-10.46 -84.5099,-20.25 -127.1099,-28.74 -55.21,-10.75 -110.95,-19.05 -167.05,-23.3 -24.31,-1.78 -48.66,-3.22 -73.04,-3.08 h -0.1 c -0.53,-3.54 -1.19,-7.04 -1.68,-10.57 33.65,-0.09 67.34,0.6 100.9,3.23 28.16,2.42 56.2,6.1201 84.01,11.17 46.19,8.03 91.66,19.58 137.32,30.09 20.68,4.2 41.4899,8.9 62.6899,8.95 5.95,-0.3 12.96,-0.27 17.34,-4.99 4.23,-4.13 3.79,-10.74 2.26,-15.97 -2.95,-9.3799 -8.84,-17.53 -15.29,-24.83 -11.1,-11.74 -23.6799,-22.15 -37.4799,-30.55 -0.18,-0.52 -0.54,-1.5601 -0.73,-2.08 m 43.18,91.51 c -6.4701,0.95 -13.42,2.84 -17.76,8.09 -3.1001,3.57 -3.03,9.33 -0.02,12.94 4.23,5.56 10.7999,8.68 17.4199,10.42 4.28,1.05 9.0601,2.3701 13.2201,0.23 5.48,-2.61 11.6499,-2.27 17.5499,-2.61 3.89,-2.11 7.28,-5.91 7.5601,-10.5 0.1799,-4.27 -2.67,-7.91 -5.79,-10.5 -8.94,-7.14 -21.0201,-9.2401 -32.18,-8.07 m 25.0799,33.0299 c -4.89,0.96 -10.9501,4.74 -9.79,10.51 1.6,4.93 6.55,7.79 11.24,9.28 7.13,2.16 15.3201,2.24 22.03,-1.33 3.14,-1.56 5.59,-5.05 4.72,-8.66 -1.63,-4.7599 -6.4199,-7.33 -10.87,-8.91 -5.58,-1.63 -11.64,-2.3699 -17.33,-0.89 z" /><path
   style="fill:#020100;stroke:#020100;stroke-width:0.2"
   inkscape:connector-curvature="0"
   id="path1689"
   d="m 1038.9259,725.3195 c 2.12,-1.24 4.35,-0.1 6.4,0.68 12.24,4.44 24.22,9.57 35.95,15.21 17.63,8.58 35.1,18.0699 49.91,31.08 10.64,8.87 20.28,19.49 25.73,32.38 4.9301,11.29 5.11,24.25 1.36,35.9 -7.15,25.28 -24.6899,46.29 -45.0399,62.28 -3.9501,3.16 -8.25,5.9 -11.78,9.55 -7.76,3.96 -14.9,9.08 -22.61,13.17 -37.3101,20.51 -78.02,33.96 -119.05,44.79 -67.71,17.29 -137.17,27.03 -206.8,32.12 -26.64,2.04 -53.35,2.64 -80.05,3.1 -56.32,1.14 -112.71,0.3 -168.9301,-3.47 -57.46,-3.95 -114.85,-10.74 -171.13,-23.22 -33.68,-7.56 -67.06,-17.06 -98.87,-30.57 -15.72,-6.71 -30.91,-14.61 -45.73,-23.11 -0.83,-0.45 -1.57,-1 -2.21,-1.66 -3.11,-3.71 -7.73,-5.62 -11.07,-9.1 -12.1,-9.53 -22.49,-21.26 -30.05,-34.69 -1.51,-3.36 -2.67,-6.86 -4.03,-10.27 -2.59,-6.68 -2.89,-13.9 -3.85,-20.92 3.99,-1.85 9.06,-3.54 10.83,-7.96 1.18,-3.33 -1.89,-5.69 -4.79,-6.21 -1.31,-0.5 -2.6,-1.06 -3.87,-1.61 2.26,-8.61 5.6,-16.98 10.42,-24.49 9.23,-14.41 21.2,-26.95 34.7,-37.42 24.1,-18.77 51.54,-32.79 79.76,-44.25 1.1,-0.51 2.31,-0.49 3.49,-0.48 -5.72,4.37 -10.54,9.85 -14.21,16.04 -1.29,0 -2.58,0.01 -3.86,0.03 -7.2,-0.43 -13.44,6.29 -13.38,13.35 -0.38,5.2 3.19,9.93 7.85,11.91 2.52,0.79 5.37,0.52 7.64,2.07 1.19,3.01 3.42,5.42 5.86,7.47 8.14,6.5099 18.41,9.73 28.59,11.3 17.78,2.74 35.88,2.51 53.79,1.34 27.94,-1.89 55.48,-7.13 83.01,-12.0099 43.74,-8.41 87.66,-16.28 132.01,-20.79 18.34,-1.62 36.7,-3.68 55.13,-3.79 0.14,0.6 0.4,1.79 0.54,2.39 -0.2,10.79 -2.1,21.54 -2.22,32.3 3.17,-11.78 6.37,-23.56 9.21,-35.43 15.59,-0.48 31.19,-0.54 46.78,-0.81 1.91,5.07 3.95,10.1 6.14,15.07 -0.77,-4.8701 -1.99,-9.65 -2.67,-14.53 24.38,-0.14 48.73,1.3 73.04,3.08 56.1,4.25 111.84,12.55 167.05,23.3 42.6,8.49 84.95,18.28 127.1099,28.74 -2.98,2.13 -6.52,3.92 -8.25,7.33 -2.1799,3.57 -1.77,8.26 0.4601,11.71 2.6799,4.59 7.35,7.46 11.7699,10.15 8.53,4.36 18.05,6.52 27.5701,7.23 -0.5,2.4901 -1.77,5.26 -0.33,7.68 1.8899,3.28 4.61,6.21 8.09,7.82 9.53,4.56 20.62,6.23 30.96,3.77 4.26,-1.4 9.35,-3.47 10.6901,-8.22 1.09,-4.1 -1.9301,-7.76 -5.03,-10.02 -4.29,-4.02 -10.17,-5.08 -15.5601,-6.81 3.03,-2.69 6.27,-5.89 6.55,-10.17 -0.03,-3.9301 -1.8101,-7.78 -4.5701,-10.54 -6.4099,-6.28 -14.8899,-10.03 -23.59,-11.86 2.22,-6.8 5.4401,-13.43 5.48,-20.74 1.3501,-16.03 -7.3099,-31.03 -18.34,-41.97 -6.7699,-6.3901 -13.7599,-12.7801 -21.9999,-17.2201 m 46.37,34.63 c -2.84,0.77 -7.51,1.98 -7.2999,5.63 2.33,6.38 12.5699,6.3 15.87,0.92 1.61,-4.8801 -4.87,-6.9501 -8.5701,-6.55 m -889.8999,16.24 c -3.32,0.67 -6.74,3.32 -4.96,7.11 3.03,3.71 9.07,3.87 13.11,1.78 2.33,-1.14 4.39,-4.94 1.64,-6.72 -2.47,-2.72 -6.43,-2.8301 -9.79,-2.17 m 921.6499,13.5999 c -4.3199,0.73 -9.78,3.7 -9.34,8.76 0.91,4.6 6.0499,6.3 10.12,6.96 4.62,0.31 9.7999,-0.42 13.33,-3.69 2.1801,-2.12 2.89,-5.78 0.72,-8.16 -3.72,-3.9699 -9.7,-4.87 -14.83,-3.87 m -908.8199,19.26 c -1.91,1.05 -3.02,3.02 -4.19,4.79 1.28,1.8199 2.46,4.23 4.92,4.61 3.43,0.65 7.13,0.06 10.19,-1.62 1.19,-1.39 2.37,-3.72 0.62,-5.17 -2.79,-3.42 -7.57,-3.5 -11.54,-2.61 m 112.6799,35.99 c -20.48,4.17 -40.76,9.39 -60.6,15.98 -17.43,6.1 -34.92,12.96 -49.91,23.98 -5.42,4.18 -10.52,9.01 -13.92,15.03 -3.05,5.5601 -4.05,12.5 -1.65,18.4901 1.34,1.46 3.22,2.21 4.88,3.24 32.54,19 68.04,32.35 104.08,42.99 55.83,16.24 113.36,25.98 171.08,32.48 -17.34,-5.79 -34.26,-12.73 -51.1,-19.82 2.5,-1.33 4.98,-2.99 6.51,-5.42 1.84,-3.56 -0.24,-7.54 -2.65,-10.22 -4.81,-4.65 -11.45,-6.4 -17.67,-8.2401 3.36,-2.73 7.09,-6.2 6.74,-10.9399 -0.31,-6.65 -5.65,-11.5601 -10.92,-14.86 -9.62,-5.6 -20.79,-8.43 -31.88,-8.67 -11.22,-0.26 -23.56,1.42 -31.84,9.74 -12.15,-11.74 -23.64,-25.86 -25.97,-43.16 -2.41,-14.83 3.44,-29.4 11.33,-41.66 -2.21,0.0799 -4.37,0.5599 -6.51,1.0599 z" /><path
   style="fill:#553c1e;stroke:#553c1e;stroke-width:0.2"
   inkscape:connector-curvature="0"
   id="path1691"
   d="m 317.1859,730.7294 c 6.18,-4.11 15.24,0.85 16.35,7.87 -1.02,0.52 -2.05,1.05 -3.06,1.6 -0.8,1.17 -1.36,2.6 -2.54,3.48 -3.33,0.41 -6.7,0.21 -10.03,0.03 -3.65,0.3199 -4.12,-4.56 -7.58,-5.14 1.1801,-3.3099 3.3101,-6.76 6.86,-7.84 z" /><path
   style="fill:#3e3b35;stroke:#3e3b35;stroke-width:0.2"
   inkscape:connector-curvature="0"
   id="path1693"
   d="m 660.396,739.9794 0.08,-0.51 c 1.07,4.08 2.5,8.06 3.88,12.05 -15.59,0.27 -31.19,0.33 -46.78,0.81 0.71,-3.13 1.43,-6.25 2.11,-9.37 l 0.14,-0.01 c 13.43,-1.05 26.9,-0.96 40.35,-1.42 0.05,-0.3899 0.1699,-1.17 0.22,-1.55 z" /><path
   style="fill:#543d1e;stroke:#543d1e;stroke-width:0.2"
   inkscape:connector-curvature="0"
   id="path1695"
   d="m 236.166,755.5695 c -0.06,-7.06 6.18,-13.78 13.38,-13.35 1.69,0.61 3.35,1.26 5.04,1.9 3.49,4.18 7.53,9.43 5.18,15.19 -2.04,2.61 -3.74,5.42 -4.72,8.61 -0.36,1.52 -2.29,1.14 -3.39,1.63 -2.27,-1.55 -5.12,-1.28 -7.64,-2.07 -4.66,-1.98 -8.23,-6.71 -7.85,-11.91 z" /><path
   style="fill:#16130d;stroke:#16130d;stroke-width:0.2"
   inkscape:connector-curvature="0"
   id="path1697"
   d="m 1085.2959,759.9495 c 3.7001,-0.4 10.1801,1.67 8.5701,6.55 -3.3,5.38 -13.54,5.46 -15.87,-0.92 -0.2101,-3.6501 4.4599,-4.8601 7.2999,-5.63 z" /><path
   style="fill:#17130a;stroke:#17130a;stroke-width:0.2"
   inkscape:connector-curvature="0"
   id="path1699"
   d="m 267.326,760.9995 c 2.88,-0.12 6.3,0.91 7.73,3.61 1.08,1.97 -0.6,3.87 -1.94,5.17 -3.25,2.1201 -7.54,2.21 -11.08,0.76 -2.26,-0.66 -3.26,-3.5 -2.73,-5.63 1.5999,-2.8801 4.9799,-3.6701 8.02,-3.91 z" /><path
   style="fill:#533e21;stroke:#533e21;stroke-width:0.2"
   inkscape:connector-curvature="0"
   id="path1701"
   d="m 195.396,776.1895 c 3.36,-0.66 7.32,-0.55 9.79,2.17 2.75,1.78 0.69,5.58 -1.64,6.72 -4.04,2.09 -10.08,1.93 -13.11,-1.78 -1.78,-3.79 1.64,-6.4401 4.96,-7.11 z" /><path
   style="fill:#a56309;stroke:#b9b5b4;stroke-width:0.2;fill-opacity:1"
   inkscape:connector-curvature="0"
   id="path1703"
   d="m 36.636,777.7394 c 0.19,-0.28 0.59,-0.85 0.79,-1.14 2.32,22.06 9.07,43.61 19.28,63.28 9.69,17.85 21.97,34.27 36.21,48.75 21.72,21.93 47.19,39.87 74.06,54.91 57.57,31.75 121.05,51.04 185.01,65.04 -0.36,0.34 -1.08,1.01 -1.44,1.34 1.02,5.91 -0.95,11.73 -0.67,17.65 0.26,5.37 -1.06,10.64 -0.99,16.01 -0.1,5.1899 0.4,10.4299 -0.38,15.6 -1.04,6.08 -0.42,12.26 -0.53,18.39 0.05,4.27 -0.38,8.5699 0.31,12.8199 1.6,8.4601 -0.35,17.14 1.22,25.62 0.93,5.02 -0.13,10.17 0.85,15.2001 0.85,4.4 0.31,8.9 0.72,13.36 1.3,11.95 3.21,23.84 4.15,35.84 1.23,12.98 3.48,25.84 5.23,38.76 1.52,4.88 1.49,10.0601 2.83,14.98 2.32,9.88 3.19,20.05 6,29.8201 2.15,11.2999 4.79,22.5 7.58,33.6599 1.03,6.4901 3.47,12.63 4.85,19.05 3.08,14.05 7.78,27.66 11.49,41.54 1.05,5.5699 3.75,10.64 4.89,16.2 1.05,4.9401 3.54,9.4 4.82,14.29 0.61,2.36 1.69,4.85 0.91,7.33 1.49,0.96 2.44,2.4301 2.54,4.23 -50.84,-18.58 -98.7,-45.3099 -141.03,-79.0499 -29.58,-23.5701 -56.33,-50.64 -79.89,-80.2201 -57.62,-72.1399 -95.43,-158.45 -118.27,-247.4899 -18.17,-70.51 -27.34,-143.12 -30.54,-215.7701 m 22.32,81.5301 c 0.01,3.47 0.74,6.89 1.31,10.31 6.63,42.68 15.62,85.05 28.13,126.41 8.66,27.99 19.15,55.52 32.71,81.52 5.18,9.53 10.21,19.2101 16.62,27.99 -1.63,-7.1 -4.37,-13.8999 -6.09,-21 -8.08,-29.71 -14.35,-60.0499 -16.17,-90.8499 -1.08,-22.58 -0.08,-45.78 7.9,-67.17 -2.35,-2.19 -5.29,-3.56 -7.99,-5.24 -20.29,-12.43 -38.32,-29.25 -49.9,-50.22 -2.47,-3.7601 -3.82,-8.1602 -6.52,-11.7501 z" /><path
   style="fill:#fda839;stroke:#ccc7c4;stroke-width:0.2;fill-opacity:1"
   inkscape:connector-curvature="0"
   id="path1705"
   d="m 1251.0559,790.6995 c 1.17,-3.3 1.77,-6.81 3.58,-9.85 0.3401,2.41 0.63,4.84 0.8601,7.28 -0.66,4.48 -1.8101,8.9 -2.0801,13.45 -2.48,21.92 -5.61,43.77 -9.11,65.54 -0.8099,4.29 -2.04,8.52 -2.16,12.92 -5.6599,32.01 -12.22,63.88 -20.45,95.35 -0.98,4.99 -3.28,9.66 -3.58,14.8 -3.16,7.09 -3.88,14.95 -6.4601,22.26 -3.61,9.78 -6.25,19.8999 -9.39,29.83 -1.8099,1.86 -2.8099,4.2101 -2.85,6.8301 -3.3199,8.7699 -6.65,17.5499 -9.61,26.46 -4.51,12.23 -10.88,23.6899 -15.23,35.98 -4.13,7.59 -7.2001,15.6901 -11.26,23.3101 -19.98,40.62 -44.48,79.0299 -73.16,114.0499 -24.27,29.25 -51.78,55.84 -82.1099,78.76 -8.93,6.9 -18.4,13.0601 -27.62,19.5601 -31.84,20.5 -65.89,37.5699 -101.48,50.5299 -40.93,15.3101 -83.68,25.3601 -126.88,31.66 -52.34,7.52 -105.41,9.52 -158.21,7.27 -3.4,-10.52 -4.69,-21.59 -6.52,-32.46 -2.22,-9.26 -2.9301,-18.78 -4.97,-28.0801 -2.13,-9.59 -2.8,-19.4199 -4.9,-29.01 -1.78,-13.88 -3.39,-27.7899 -5.5601,-41.61 -1.17,-5.58 -0.78,-11.34 -2.02,-16.9 -1.6,-9.5099 -2.03,-19.1699 -3.38,-28.71 -0.75,-7.5 -2.09,-14.9299 -2.59,-22.4399 0.24,-12.4 -3.26,-24.52 -2.97,-36.92 -1.33,-8.96 -0.71,-18.0601 -2.28,-27 -1,-6.09 -0.32,-12.29 -1.25,-18.38 -0.84,-5.3199 -0.11,-10.75 -1.05,-16.0599 -0.77,-4.78 -0.05,-9.64 -0.75,-14.42 -0.81,-5.6901 -0.62,-11.4301 -0.74,-17.15 0.05,-5.6899 -1.15,-11.3 -0.97,-16.98 0.3,-11.03 -1.4,-21.99 -0.95,-33.02 0.48,-7.95 -1.06,-15.8 -1.02,-23.72 4.01,0.36 8.02,0.7899 12.06,0.7799 9.66,-0.12 19.26,1.3301 28.92,1 6.7,-0.25 13.39,0.14 20.07,0.55 17.63,0.07 35.27,0.29 52.9,-0.09 10.01,-0.9 20.05,-0.1801 30.08,-0.5801 6.33,-0.1499 12.64,-1.08 18.99,-0.89 7.35,0.2301 14.65,-0.99 22,-0.98 6.69,0.1 13.3,-1.23 19.99,-1.0699 44.13,-3.1 88.26,-7.12 131.93,-14.33 45.7,-7.15 91.05,-17.14 135.0099,-31.64 7.29,-2.06 13.98,-5.68 21.18,-7.98 9.98,-3.96 20.04,-7.73 29.85,-12.08 8.5,-4.25 17.38,-7.71 25.63,-12.45 6.77,-3.95 14.04,-6.97 20.61,-11.28 24.27,-14.2 46.85,-31.34 66.79,-51.19 28.2702,-28.3102 50.0602,-63.0702 63.1102,-100.9001 m -17.52,73.87 c -12.23,24.79 -29.73,46.98 -50.74,64.94 -14.26,12.12 -30.02,22.33 -46.27,31.57 -1.25,0.96 -4.02,1.68 -3.0699,3.77 6.53,21.9 7.39,45.04 6.23,67.72 -2.8199,45.26 -13.61,89.62 -27.1801,132.76 -6.12,18.52 -12.2699,37.09 -19.9399,55.03 0.17,0.26 0.52,0.7799 0.6899,1.0399 1.5701,-2.27 2.9901,-4.63 4.5701,-6.89 22.47,-31.5699 40.97,-65.7799 57.0599,-100.97 35.4401,-78.67 59.54,-161.93 78.7001,-245.89 0.06,-1.04 0.04,-2.0699 -0.05,-3.0799 z" /><path
   style="fill:#99805a;stroke:#99805a;stroke-width:0.2"
   inkscape:connector-curvature="0"
   id="path1707"
   d="m 1117.0459,789.7894 c 5.13,-1 11.11,-0.1 14.83,3.87 2.17,2.38 1.4601,6.04 -0.72,8.16 -3.53,3.27 -8.71,4 -13.33,3.69 -4.0701,-0.66 -9.21,-2.36 -10.12,-6.96 -0.44,-5.06 5.0201,-8.0299 9.34,-8.76 z" /><path
   style="fill:#020100;stroke:#020100;stroke-width:0.2"
   inkscape:connector-curvature="0"
   id="path1709"
   d="m 1060.246,808.0195 c 11.1599,-1.17 23.24,0.93 32.1799,8.07 3.12,2.59 5.97,6.23 5.79,10.5 -0.28,4.59 -3.67,8.39 -7.5601,10.5 -5.9,0.34 -12.0699,0 -17.5499,2.61 -4.16,2.14 -8.9401,0.82 -13.2201,-0.23 -6.62,-1.74 -13.1899,-4.86 -17.4199,-10.42 -3.01,-3.61 -3.0801,-9.37 0.02,-12.94 4.34,-5.2501 11.29,-7.1401 17.7601,-8.09 m 24.1799,9.1999 c -4.9399,0.5 -9.47,6.14 -6.74,10.9301 3.71,6.96 16.01,5.28 17.41,-2.59 0.99,-5.7701 -5.63,-9.47 -10.67,-8.3401 z" /><path
   style="fill:#17130c;stroke:#17130c;stroke-width:0.2"
   inkscape:connector-curvature="0"
   id="path1711"
   d="m 208.226,809.0494 c 3.97,-0.89 8.75,-0.81 11.54,2.61 1.75,1.45 0.57,3.78 -0.62,5.17 -3.06,1.68 -6.76,2.27 -10.19,1.62 -2.46,-0.38 -3.64,-2.79 -4.92,-4.61 1.17,-1.7699 2.28,-3.74 4.19,-4.79 z" /><path
   style="fill:#fffffd;stroke:#fffffd;stroke-width:0.2"
   inkscape:connector-curvature="0"
   id="path1713"
   d="m 1084.4259,817.2194 c 5.04,-1.1299 11.66,2.57 10.67,8.34 -1.4,7.87 -13.7001,9.55 -17.41,2.59 -2.73,-4.79 1.8001,-10.43 6.74,-10.93 z" /><path
   style="fill:#523d1f;stroke:#523d1f;stroke-width:0.2"
   inkscape:connector-curvature="0"
   id="path1715"
   d="m 125.466,840.0795 c 4.44,-4.77 11.26,-6.85 17.65,-5.68 2.9,0.52 5.97,2.8799 4.79,6.21 -1.77,4.42 -6.84,6.11 -10.83,7.96 -3.62,0.14 -7.56,0.47 -10.85,-1.3 -2.63,-1.32 -2.64,-5.25 -0.76,-7.19 z" /><path
   style="fill:#030100;stroke:#030100;stroke-width:0.2"
   inkscape:connector-curvature="0"
   id="path1717"
   d="m 1085.3259,841.0494 c 5.6899,-1.48 11.75,-0.74 17.33,0.89 4.4501,1.58 9.24,4.15 10.87,8.91 0.87,3.61 -1.58,7.1 -4.72,8.66 -6.71,3.57 -14.9,3.49 -22.03,1.33 -4.6899,-1.4901 -9.64,-4.35 -11.24,-9.28 -1.16,-5.77 4.9,-9.5499 9.79,-10.51 m 14.05,10.61 c 0.4901,3.08 3.4501,5.44 6.5901,4.96 3.51,0.07 7.13,-3.81 5.21,-7.24 -2.5901,-4.9199 -11.1401,-3.2999 -11.8001,2.28 z" /><path
   style="fill:#605c5b;stroke:#605c5b;stroke-width:0.2"
   inkscape:connector-curvature="0"
   id="path1719"
   d="m 320.9059,845.0394 c 2.14,-0.5 4.3,-0.98 6.51,-1.06 -7.89,12.26 -13.74,26.83 -11.33,41.66 2.33,17.3 13.82,31.42 25.97,43.16 -2.93,3.69 -3.09,9.25 -0.5,13.17 3.83,6.33 10.67,9.97 17.23,12.89 7,2.84 14.51,4.02 21.97,5.02 -1.06,3.05 -1.3,6.56 0.89,9.22 5.41,7.18 14.77,9.84 23.34,10.7 6.31,0.52 12.97,0.4 18.78,-2.39 16.84,7.09 33.76,14.03 51.1,19.82 -57.72,-6.5 -115.25,-16.24 -171.08,-32.48 -36.04,-10.64 -71.54,-23.99 -104.08,-42.99 -1.66,-1.03 -3.54,-1.78 -4.88,-3.24 -2.4,-5.9901 -1.4,-12.93 1.65,-18.4901 3.4,-6.02 8.5,-10.85 13.92,-15.03 14.99,-11.02 32.48,-17.88 49.91,-23.98 19.84,-6.5899 40.12,-11.8098 60.6,-15.9799 z" /><path
   style="fill:#fefdfb;stroke:#fefdfb;stroke-width:0.2"
   inkscape:connector-curvature="0"
   id="path1721"
   d="m 1099.3759,851.6594 c 0.66,-5.58 9.2101,-7.2 11.8,-2.28 1.92,3.43 -1.7,7.31 -5.21,7.24 -3.14,0.48 -6.0999,-1.88 -6.59,-4.96 z" /><path
   style="fill:#e4e8e9;stroke:#e4e8e9;stroke-width:0.2"
   inkscape:connector-curvature="0"
   id="path1723"
   d="m 58.956,859.2695 c 2.7,3.59 4.05,7.99 6.52,11.75 11.58,20.97 29.61,37.79 49.9,50.22 2.7,1.68 5.64,3.05 7.99,5.24 -7.98,21.39 -8.98,44.59 -7.9,67.17 1.82,30.8 8.09,61.14 16.17,90.8499 1.72,7.1001 4.46,13.9 6.09,21 -6.41,-8.7799 -11.44,-18.46 -16.62,-27.99 -13.56,-26 -24.05,-53.53 -32.71,-81.52 -12.51,-41.36 -21.5,-83.73 -28.13,-126.41 -0.57,-3.42 -1.3,-6.84 -1.31,-10.3099 z" /><path
   style="fill:#ffffff;stroke:#ffffff;stroke-width:0.2"
   inkscape:connector-curvature="0"
   id="path1725"
   d="m 1233.5359,864.5695 c 0.09,1.01 0.11,2.04 0.05,3.08 -19.16,83.96 -43.26,167.2199 -78.7001,245.89 -16.09,35.1901 -34.59,69.4 -57.0599,100.97 -1.58,2.26 -3,4.62 -4.5701,6.89 -0.1699,-0.26 -0.5199,-0.7799 -0.6899,-1.0399 7.67,-17.9401 13.8199,-36.51 19.9399,-55.03 13.5701,-43.14 24.3601,-87.5 27.1801,-132.76 1.16,-22.68 0.3,-45.82 -6.23,-67.72 -0.9501,-2.09 1.8199,-2.81 3.0699,-3.77 16.25,-9.24 32.01,-19.45 46.27,-31.57 21.0101,-17.9602 38.5101,-40.1502 50.7401,-64.9401 z" /><path
   style="fill:#3e3b35;stroke:#3e3b35;stroke-width:0.2"
   inkscape:connector-curvature="0"
   id="path1727"
   d="m 342.0559,928.7994 c 8.28,-8.32 20.62,-10 31.84,-9.74 11.09,0.24 22.26,3.07 31.88,8.67 5.27,3.3 10.61,8.21 10.92,14.86 0.35,4.74 -3.38,8.21 -6.74,10.9399 6.22,1.84 12.86,3.59 17.67,8.2401 2.41,2.68 4.49,6.66 2.65,10.22 -1.53,2.43 -4.01,4.09 -6.51,5.42 -5.81,2.79 -12.47,2.91 -18.78,2.39 -8.57,-0.86 -17.93,-3.52 -23.34,-10.7 -2.19,-2.66 -1.95,-6.17 -0.89,-9.22 -7.46,-1 -14.97,-2.18 -21.97,-5.02 -6.56,-2.92 -13.4,-6.56 -17.23,-12.89 -2.59,-3.92 -2.43,-9.48 0.5,-13.17 m 31.26,-4.77 c -6.76,1.13 -14.41,3.88 -17.55,10.5 -2.12,4.7401 0.42,10.01 3.98,13.26 6.17,5.36 14.29,7.84 22.27,8.87 2.84,0.56 5.34,-1.21 7.94,-2.02 4.97,-1.87 10.36,-1.32 15.55,-1.68 3.99,-2.4301 7.66,-6.45 7.62,-11.39 -0.5,-4.53 -3.67,-8.28 -7.28,-10.8 -9.36,-6.5099 -21.41,-8.3199 -32.53,-6.74 m 25.9,32.9801 c -4.57,1.32 -10.38,4.89 -8.92,10.5 1.5,4.77 6.44,7.25 10.79,8.92 8.11,2.48 17.96,2.79 24.89,-2.78 3.42,-2.77 3.13,-8.39 -0.14,-11.15 -7.09,-6.4001 -17.6,-7.6901 -26.62,-5.49 z" /><path
   style="fill:#020100;stroke:#020100;stroke-width:0.2"
   inkscape:connector-curvature="0"
   id="path1729"
   d="m 373.3159,924.0294 c 11.12,-1.58 23.17,0.23 32.53,6.7401 3.61,2.52 6.78,6.27 7.28,10.8 0.04,4.94 -3.63,8.96 -7.62,11.39 -5.19,0.36 -10.58,-0.19 -15.55,1.68 -2.6,0.81 -5.1,2.58 -7.94,2.02 -7.98,-1.03 -16.1,-3.5099 -22.27,-8.87 -3.56,-3.25 -6.1,-8.52 -3.98,-13.26 3.14,-6.6201 10.79,-9.3701 17.55,-10.5001 m 25.03,9.13 c -4.63,0.95 -8.5,6.4 -5.83,10.89 3.81,6.64 15.52,5.16 17.33,-2.38 1.2601,-6.2 -6.16,-10.3499 -11.5,-8.51 z" /><path
   style="fill:#fefdfc;stroke:#fefdfc;stroke-width:0.2"
   inkscape:connector-curvature="0"
   id="path1731"
   d="m 398.3459,933.1594 c 5.34,-1.84 12.76,2.31 11.5,8.51 -1.81,7.54 -13.52,9.02 -17.33,2.38 -2.67,-4.49 1.2,-9.94 5.83,-10.89 z" /><path
   style="fill:#030000;stroke:#030000;stroke-width:0.2"
   inkscape:connector-curvature="0"
   id="path1733"
   d="m 399.2159,957.0095 c 9.02,-2.2 19.53,-0.91 26.62,5.49 3.27,2.76 3.56,8.38 0.14,11.15 -6.93,5.5699 -16.78,5.2599 -24.89,2.78 -4.35,-1.67 -9.29,-4.15 -10.79,-8.92 -1.46,-5.61 4.35,-9.18 8.92,-10.5 m 18.09,6.0199 c -2.22,1.1 -3.79,4.1801 -2.38,6.46 2.36,4.75 11.05,3.45 11.57,-2.01 0.2601,-4.5299 -5.76,-6.68 -9.19,-4.45 z" /><path
   style="fill:#fffdfe;stroke:#fffdfe;stroke-width:0.2"
   inkscape:connector-curvature="0"
   id="path1735"
   d="m 417.3059,963.0294 c 3.43,-2.23 9.45,-0.08 9.19,4.45 -0.52,5.46 -9.21,6.76 -11.57,2.01 -1.41,-2.2799 0.16,-5.3599 2.38,-6.46 z" /><path
   style="fill:#e59632;stroke:#c2bdba;stroke-width:0.2;fill-opacity:1"
   inkscape:connector-curvature="0"
   id="path1737"
   d="m 351.9859,1008.5795 c 65.78,14.12 132.85,21.37 199.95,25.25 -0.04,7.9199 1.5,15.77 1.02,23.72 -0.45,11.03 1.25,21.99 0.95,33.02 -0.18,5.6799 1.02,11.29 0.97,16.98 0.12,5.72 -0.07,11.46 0.74,17.15 0.7,4.78 -0.02,9.64 0.75,14.42 0.94,5.3099 0.21,10.74 1.05,16.0599 0.93,6.09 0.25,12.29 1.25,18.38 1.57,8.9399 0.95,18.04 2.28,27 -0.29,12.4 3.21,24.52 2.97,36.92 0.5,7.51 1.84,14.9399 2.59,22.4399 1.35,9.54 1.78,19.2001 3.38,28.71 1.24,5.5601 0.85,11.3201 2.02,16.9 2.17,13.8201 3.78,27.73 5.5601,41.61 2.1,9.5901 2.77,19.42 4.9,29.01 2.04,9.3 2.75,18.8201 4.97,28.0801 1.83,10.87 3.12,21.9399 6.52,32.46 -63.81,-2.77 -127.49,-14.3101 -187.49,-36.42 -0.1,-1.7999 -1.05,-3.27 -2.54,-4.23 0.78,-2.48 -0.3,-4.97 -0.91,-7.33 -1.28,-4.89 -3.77,-9.35 -4.82,-14.29 -1.14,-5.5599 -3.84,-10.63 -4.89,-16.2 -3.71,-13.88 -8.41,-27.49 -11.49,-41.54 -1.38,-6.42 -3.82,-12.5599 -4.85,-19.05 -2.79,-11.1599 -5.43,-22.36 -7.58,-33.6599 -2.81,-9.77 -3.68,-19.9401 -6,-29.8201 -1.34,-4.9199 -1.31,-10.1 -2.83,-14.98 -1.75,-12.92 -4,-25.78 -5.23,-38.76 -0.94,-12 -2.85,-23.89 -4.15,-35.84 -0.41,-4.46 0.13,-8.96 -0.72,-13.36 -0.98,-5.03 0.08,-10.1801 -0.85,-15.2001 -1.57,-8.48 0.38,-17.1599 -1.22,-25.62 -0.69,-4.25 -0.26,-8.5499 -0.31,-12.8199 0.11,-6.13 -0.51,-12.3101 0.53,-18.39 0.78,-5.17 0.28,-10.41 0.38,-15.6 -0.07,-5.37 1.25,-10.64 0.99,-16.01 -0.28,-5.92 1.69,-11.74 0.67,-17.65 0.3599,-0.3299 1.0799,-1 1.4399,-1.3399 z" />
</svg>